HIERARCHY
ROOT pelvis
{
  OFFSET 0 100 0
  CHANNELS 6 Xposition Yposition Zposition Zrotation Xrotation Yrotation
  JOINT pelvis_right_femur
  {
    OFFSET -10.78128 -3.44521 -0.5502486
    CHANNELS 3 Zrotation Xrotation Yrotation
    JOINT right_femur_tibia
    {
      OFFSET -0.8047443 -44.0398 -0.1307829
      CHANNELS 3 Zrotation Xrotation Yrotation
      JOINT right_tibia_foot
      {
        OFFSET 3.006224 -47.83518 -5
        CHANNELS 3 Zrotation Xrotation Yrotation
        End Site
        {
          OFFSET 0 -5 15
        }
      }
    }
  }
  JOINT pelvis_left_femur
  {
    OFFSET 10.78128 -3.44521 -0.5502486
    CHANNELS 3 Zrotation Xrotation Yrotation
    JOINT left_femur_tibia
    {
      OFFSET 0.8047443 -44.0398 -0.1307829
      CHANNELS 3 Zrotation Xrotation Yrotation
      JOINT left_tibia_foot
      {
        OFFSET -4.370144 -48.10324 -4.275266
        CHANNELS 3 Zrotation Xrotation Yrotation
        End Site
        {
          OFFSET 0 -5 15
        }
      }
    }
  }
  JOINT pelvis_spine1
  {
    OFFSET 0 6.468898 -3.129235
    CHANNELS 3 Zrotation Xrotation Yrotation
    JOINT spine1
    {
      OFFSET 0 23.15396 4.99043
      CHANNELS 3 Zrotation Xrotation Yrotation
      JOINT spine2
      {
        OFFSET 0 20.79997 -5.064912
        CHANNELS 3 Zrotation Xrotation Yrotation
        JOINT neck
        {
          OFFSET 0 14.38658 9.616178
          CHANNELS 3 Zrotation Xrotation Yrotation
          End Site
          {
            OFFSET 0 20 0
          }
        }
      }
      JOINT right_manubrium
      {
        OFFSET -5.722621 16.35077 3.967754
        CHANNELS 3 Zrotation Xrotation Yrotation
        JOINT right_clavicle
        {
          OFFSET -13.16364 1.694482 -4.693211
          CHANNELS 3 Zrotation Xrotation Yrotation
          JOINT right_humerus
          {
            OFFSET -28.5034 -0.3100689 -2.792744
            CHANNELS 3 Zrotation Xrotation Yrotation
            JOINT right_radius
            {
              OFFSET -25.15693 0.02248979 -1.271978
              CHANNELS 3 Zrotation Xrotation Yrotation
              End Site
              {
                OFFSET -15 0 0
              }
            }
          }
        }
      }
      JOINT left_manubrium
      {
        OFFSET 5.722621 16.35077 3.967754
        CHANNELS 3 Zrotation Xrotation Yrotation
        JOINT left_clavicle
        {
          OFFSET 13.16364 1.694482 -4.693211
          CHANNELS 3 Zrotation Xrotation Yrotation
          JOINT left_humerus
          {
            OFFSET 29.39168 -1.063119 -2.237045
            CHANNELS 3 Zrotation Xrotation Yrotation
            JOINT left_radius
            {
              OFFSET 24.59957 -0.9528479 0.9047498
              CHANNELS 3 Zrotation Xrotation Yrotation
              End Site
              {
                OFFSET 15 -0 -0
              }
            }
          }
        }
      }
    }
  }
}
MOTION
Frames: 7
Frame Time: 0.0416666666667
0 103.5113 0 0.6358082 -0.688112 -0.006860732 3.950851 -15.62988 10.10202 -0 40.26312 -0 -5.505224 -18.1198 -3.880682 -6.912868 10.82463 -23.40751 -0 5.544355 -0 10.50003 -15.61705 27.56039 -3.866789 -3.931097 4.244378 3.043973 9.121441 -7.82001 1.180396 22.76315 6.835273 2.204962 -25.58307 10.16053 6.046953 -19.89507 11.62047 85.98325 35.95048 -18.69485 -0 0 15.25021 -6.292125 8.227666 4.512499 4.64592 -18.82816 -1.276285 -94.30471 27.329 22.48264 0 0 -14.38296 8.466583 17.83237 4.295813
0.2159496 103.5378 1.419323 0.5094213 -0.7929691 -0.00116089 4.000399 -16.15237 9.742243 -0 39.9352 -0 -5.690385 -17.14484 -3.791917 -6.756115 11.00504 -23.05572 -0 5.472275 -0 10.10376 -15.89991 27.16087 -3.724547 -3.816998 4.127617 2.9946 9.239132 -7.836626 1.178982 22.72729 6.884103 2.25945 -25.57612 10.13707 5.854377 -19.8855 11.63414 86.19699 35.45511 -18.79095 -0 0 15.07929 -6.821128 8.325967 4.717551 4.738124 -19.09198 -1.420906 -94.06725 27.0876 22.20004 0 0 -14.60316 8.522891 17.8326 4.229891
0.4643422 103.2848 3.312595 0.09630726 0.07478705 0.08983433 4.759006 -21.33532 8.779227 -0 34.97284 -0 -5.619796 -14.86355 -3.36221 -6.558322 12.16968 -22.29621 -0 4.883042 -0 9.560691 -17.61844 26.12276 -3.349823 -3.234163 4.067157 2.929377 9.287964 -7.786183 1.492366 22.09713 6.955431 2.512316 -25.73048 10.32697 5.449506 -19.52897 11.40652 86.62255 34.8331 -19.33742 -0 0 14.52229 -7.28726 8.692797 5.066356 5.589802 -19.81503 -1.416145 -92.59594 26.39817 20.41516 0 0 -17.66518 9.417093 16.93804 3.635288
0.7308344 102.7986 5.587617 -0.2151163 1.142722 0.2546924 5.557281 -25.89761 8.206883 -0 30.05986 -0 -5.304431 -13.46827 -2.976395 -6.508217 13.28716 -21.82227 -0 4.835665 -0 8.910261 -19.27198 25.25475 -3.131724 -2.73571 4.088077 2.954994 9.122828 -7.80795 1.715698 21.49915 7.089356 2.822839 -25.91209 10.4881 5.344674 -19.06112 11.15953 86.82773 35.06129 -19.99186 -0 0 14.06932 -7.064244 8.988893 4.955132 6.35846 -20.32184 -1.262561 -91.60489 26.44721 19.10316 0 0 -20.60397 9.704296 16.1931 3.609898
1.001472 102.1441 8.247682 -0.5642994 2.050064 0.4912223 6.282466 -29.65057 7.598558 -0 25.79634 -0 -5.151749 -11.72485 -2.535788 -6.379002 14.33349 -21.19291 -0 5.395801 -0 7.651891 -20.83519 24.03719 -2.864488 -2.238912 4.006606 2.973816 8.942025 -7.875617 1.828078 21.00636 7.315367 3.183622 -26.10461 10.59649 5.260748 -18.53908 10.94962 87.07395 35.3121 -20.67271 -0 0 13.54325 -7.002836 9.321125 4.741855 7.015208 -20.85063 -1.173845 -90.90634 26.70686 18.06174 0 0 -22.96886 9.658228 15.74003 3.794005
1.266434 101.4118 11.26051 -0.9364574 2.806169 0.796979 6.908208 -32.32602 7.118731 -0 22.52731 -0 -5.147538 -10.04593 -2.126464 -6.185344 15.19352 -20.61034 -0 6.461644 -0 5.7867 -22.18262 22.54816 -2.543234 -1.7879 3.861493 2.971263 8.686922 -7.939955 1.867895 20.64873 7.595197 3.531344 -26.3222 10.70939 5.230548 -17.99695 10.75271 87.2967 35.5896 -21.29918 -0 0 13.0429 -6.947895 9.670437 4.448682 7.485543 -21.25093 -1.079724 -90.66923 27.42008 17.52797 0 0 -24.56961 9.088244 15.64061 4.529565
1.526784 100.674 14.6213 -1.297754 3.504002 1.178834 7.41449 -34.17397 6.717715 -0 19.98918 -0 -5.265806 -8.390495 -1.688851 -5.969633 15.78424 -20.03769 -0 7.960361 -0 3.495815 -23.22621 20.77548 -2.184684 -1.380748 3.711397 2.939173 8.393198 -7.98812 1.845477 20.36648 7.914155 3.879945 -26.54538 10.8038 5.298686 -17.45238 10.58732 87.47696 35.98511 -21.87952 -0 0 12.57675 -6.92338 10.04955 4.144416 7.816147 -21.54809 -0.9747473 -90.73679 28.35346 17.38778 0 0 -25.62292 8.240596 15.68791 5.594912
